# File created by Blade
# Date/Time:  Wed Jan 21 14:28:00 2015
#---------------------------------------------------------
:version 1.10
:name HOM
:units
  mass 1.0
  length 1.000000
  angle deg
:documentation
     Acclaim Skeleton File
:root
   axis xyz
   order TX TY TZ RX RY RZ
   position 0.000000 0.000000 0.000000
   orientation 0 0 0
:bonedata
   begin
      id 1
      name Spine_dum
      direction 0.000000 1.000000 0.000000
      length 7.067664
      axis 0.0 0.0 0.0 xyz
   end
   begin
      id 2
      name LeftUpLeg_dum
      direction 1.000000 0.000000 0.000000
      length 4.013002
      axis 0.0 0.0 0.0 xyz
   end
   begin
      id 3
      name RightUpLeg_dum
      direction -1.000000 0.000000 0.000000
      length 4.013002
      axis 0.0 0.0 0.0 xyz
   end
   begin
      id 4
      name Spine
      direction 0.000000 1.000000 0.000000
      length 0.000000
      axis 0.0 0.0 0.0 xyz
      dof rx ry rz
   end
   begin
      id 5
      name Spine_dum1
      direction 0.000000 1.000000 0.000000
      length 15.039886
      axis 0.0 0.0 0.0 xyz
   end
   begin
      id 6
      name Spine_dum2
      direction 0.000000 1.000000 0.000000
      length 10.530368
      axis 0.0 0.0 0.0 xyz
   end
   begin
      id 7
      name Spine_dum3
      direction 0.000000 1.000000 0.000000
      length 10.530368
      axis 0.0 0.0 0.0 xyz
   end
   begin
      id 8
      name Head
      direction 0.000000 1.000000 0.000000
      length 4.527550
      axis 0.0 0.0 0.0 xyz
      dof rx ry rz
   end
   begin
      id 9
      name LeftShoulder
      direction 1.000000 0.000000 0.000000
      length 7.028855
      axis 0.0 0.0 -90.0 xyz
      dof rx ry rz
   end
   begin
      id 10
      name LeftArm
      direction 1.000000 0.000000 0.000000
      length 10.797705
      axis 0.0 0.0 -90.0 xyz
      dof rx ry rz
   end
   begin
      id 11
      name LeftForeArm
      direction 1.000000 0.000000 0.000000
      length 7.907442
      axis 0.0 0.0 -90.0 xyz
      dof ry rz rx
   end
   begin
      id 12
      name LeftHand
      direction 0.000000 0.000000 0.000000
      length 0.000000
      axis 0.0 0.0 -90.0 xyz
      dof rx ry rz
   end
   begin
      id 13
      name LeftHand_dum1
      direction 0.000000 0.000000 0.000000
      length 0.000000
      axis 0.0 0.0 -90.0 xyz
   end
   begin
      id 14
      name LeftHand_dum2
      direction 1.000000 0.000000 0.000000
      length 3.937000
      axis 0.0 0.0 -90.0 xyz
   end
   begin
      id 15
      name LeftHandThumb1
      direction 0.000000 0.000000 1.000000
      length 3.937000
      axis 0.0 0.0 -90.0 xyz
      dof rx rz ry
   end
   begin
      id 16
      name RightShoulder
      direction -1.000000 0.000000 0.000000
      length 7.028855
      axis 0.0 0.0 90.0 xyz
      dof rx ry rz
   end
   begin
      id 17
      name RightArm
      direction -1.000000 0.000000 0.000000
      length 10.797705
      axis 0.0 0.0 90.0 xyz
      dof rx ry rz
   end
   begin
      id 18
      name RightForeArm
      direction -1.000000 0.000000 0.000000
      length 7.907442
      axis 0.0 0.0 90.0 xyz
      dof ry rz rx
   end
   begin
      id 19
      name RightHand
      direction 0.000000 0.000000 0.000000
      length 0.000000
      axis 0.0 0.0 90.0 xyz
      dof rx ry rz
   end
   begin
      id 20
      name RightHand_dum1
      direction 0.000000 0.000000 0.000000
      length 0.000000
      axis 0.0 0.0 90.0 xyz
   end
   begin
      id 21
      name RightHand_dum2
      direction -1.000000 0.000000 0.000000
      length 3.937000
      axis 0.0 0.0 90.0 xyz
   end
   begin
      id 22
      name RightHandThumb1
      direction 0.000000 0.000000 1.000000
      length 3.937000
      axis 0.0 0.0 90.0 xyz
      dof rx rz ry
   end
   begin
      id 23
      name LeftUpLeg
      direction 0.000000 -1.000000 0.000000
      length 16.899758
      axis 0.0 0.0 0.0 xyz
      dof rx ry rz
   end
   begin
      id 24
      name LeftLeg
      direction 0.000000 -1.000000 0.000000
      length 17.389183
      axis 0.0 0.0 0.0 xyz
      dof rx ry rz
   end
   begin
      id 25
      name LeftFoot
      direction 0.000000 -0.258819 0.965926
      length 4.924528
      axis 15.0 0.0 0.0 xyz
      dof rx ry rz
   end
   begin
      id 26
      name LeftToeBase
      direction 0.000000 0.000000 1.000000
      length 2.952750
      axis 0.0 0.0 0.0 xyz
      dof rx ry rz
   end
   begin
      id 27
      name RightUpLeg
      direction 0.000000 -1.000000 0.000000
      length 16.899758
      axis 0.0 0.0 0.0 xyz
      dof rx ry rz
   end
   begin
      id 28
      name RightLeg
      direction 0.000000 -1.000000 0.000000
      length 17.389183
      axis 0.0 0.0 0.0 xyz
      dof rx ry rz
   end
   begin
      id 29
      name RightFoot
      direction 0.000000 -0.258819 0.965926
      length 4.924528
      axis 15.0 0.0 0.0 xyz
      dof rx ry rz
   end
   begin
      id 30
      name RightToeBase
      direction 0.000000 0.000000 1.000000
      length 2.952750
      axis 0.0 0.0 0.0 xyz
      dof rx ry rz
   end
:hierarchy
   begin
      root Spine_dum LeftUpLeg_dum RightUpLeg_dum
      Spine_dum Spine
      LeftUpLeg_dum LeftUpLeg
      RightUpLeg_dum RightUpLeg
      Spine Spine_dum1 Spine_dum2 Spine_dum3
      Spine_dum1 Head
      Spine_dum2 LeftShoulder
      Spine_dum3 RightShoulder
      LeftShoulder LeftArm
      LeftArm LeftForeArm
      LeftForeArm LeftHand
      LeftHand LeftHand_dum1 LeftHand_dum2
      LeftHand_dum1 LeftHandThumb1
      RightShoulder RightArm
      RightArm RightForeArm
      RightForeArm RightHand
      RightHand RightHand_dum1 RightHand_dum2
      RightHand_dum1 RightHandThumb1
      LeftUpLeg LeftLeg
      LeftLeg LeftFoot
      LeftFoot LeftToeBase
      RightUpLeg RightLeg
      RightLeg RightFoot
      RightFoot RightToeBase
   end

# File created by Blade
# Date/Time:  Wed Jan 21 14:28:11 2015
# Frame Rate: 120.000 fps
#------------------------------------------------------
:FULLY-SPECIFIED
:DEGREES
28
root 18.876024 35.513957 -20.908516 -172.734287 -3.041397 -178.793628
Spine -18.364507 -0.135503 0.998872
Head 10.002440 -0.984193 -1.270725
LeftShoulder -11.387466 -37.525319 20.214440
LeftArm 5.923475 8.640719 -7.352984
LeftForeArm 11.487098 -0.000000 -1.349603
LeftHand -9.143515 -0.000000 -5.910374
LeftHandThumb1 -26.253704 0.000000 33.147579
RightShoulder -9.834261 0.426711 -12.404764
RightArm 7.489984 38.848651 10.636173
RightForeArm -36.065656 -0.000000 4.498701
RightHand -4.855842 -0.000000 12.030370
RightHandThumb1 -24.326973 -0.000000 -32.862282
LeftUpLeg 0.242225 8.861236 2.314045
LeftLeg -6.551192 -0.000000 0.000000
LeftFoot -19.345681 26.985847 -11.845712
LeftToeBase 27.672630 -0.000000 -0.000000
RightUpLeg -1.173675 -12.864665 -0.067319
RightLeg -3.261715 -0.000000 0.000000
RightFoot -19.784678 -21.831023 15.955808
RightToeBase 25.575796 -0.000000 -0.000000
29
root 18.877344 35.513398 -20.910444 -172.721276 -3.045707 -178.790833
Spine -18.378761 -0.134735 0.990935
Head 9.973349 -1.003508 -1.256727
LeftShoulder -11.464026 -37.403525 20.224321
LeftArm 5.909716 8.748115 -7.406436
LeftForeArm 11.444776 -0.000000 -1.204466
LeftHand -9.207582 -0.000000 -5.765374
LeftHandThumb1 -26.253704 0.000000 33.147579
RightShoulder -9.826866 0.394853 -12.398543
RightArm 7.302491 38.561121 10.671765
RightForeArm -36.185483 0.000000 4.733356
RightHand -4.835784 -0.000000 11.873947
RightHandThumb1 -24.326973 -0.000000 -32.862282
LeftUpLeg 0.226636 8.861389 2.316984
LeftLeg -6.544461 -0.000000 0.000000
LeftFoot -19.350283 26.991613 -11.826853
LeftToeBase 27.689808 -0.000000 -0.000000
RightUpLeg -1.180545 -12.863216 -0.059992
RightLeg -3.267130 -0.000000 0.000000
RightFoot -19.794197 -21.826163 15.969898
RightToeBase 25.627627 -0.000000 -0.000000
30
root 18.878590 35.512615 -20.912076 -172.716979 -3.051025 -178.794531
Spine -18.376704 -0.129342 0.977482
Head 9.949903 -1.016843 -1.261189
LeftShoulder -11.509996 -37.302001 20.215846
LeftArm 5.834870 8.852713 -7.474387
LeftForeArm 11.374943 0.000000 -1.023442
LeftHand -9.268386 -0.000000 -5.422599
LeftHandThumb1 -26.253704 0.000000 33.147579
RightShoulder -9.800626 0.351281 -12.375702
RightArm 7.054826 38.265281 10.669522
RightForeArm -36.144957 0.000000 4.999443
RightHand -4.904720 -0.000000 11.657741
RightHandThumb1 -24.326973 -0.000000 -32.862282
LeftUpLeg 0.218803 8.877169 2.314987
LeftLeg -6.533663 -0.000000 0.000000
LeftFoot -19.351952 26.974411 -11.810696
LeftToeBase 27.695744 -0.000000 -0.000000
RightUpLeg -1.181073 -12.864940 -0.060540
RightLeg -3.266282 -0.000000 0.000000
RightFoot -19.806417 -21.832946 15.960185
RightToeBase 25.639712 -0.000000 -0.000000
31
root 18.880163 35.512161 -20.913387 -172.716875 -3.054529 -178.797841
Spine -18.362428 -0.116572 0.956712
Head 9.904120 -1.048353 -1.234441
LeftShoulder -11.535222 -37.158669 20.181223
LeftArm 5.735039 9.053388 -7.554618
LeftForeArm 11.276031 0.000000 -0.791092
LeftHand -9.261240 -0.000000 -5.135062
LeftHandThumb1 -26.253704 0.000000 33.147579
RightShoulder -9.776329 0.180931 -12.339813
RightArm 6.786457 38.083889 10.732445
RightForeArm -36.171248 -0.000000 5.346448
RightHand -5.125787 -0.000000 11.341161
RightHandThumb1 -24.326973 -0.000000 -32.862282
LeftUpLeg 0.214055 8.865058 2.313513
LeftLeg -6.521582 -0.000000 0.000000
LeftFoot -19.353995 26.958860 -11.893515
LeftToeBase 27.493286 -0.000000 -0.000000
RightUpLeg -1.178557 -12.865507 -0.061735
RightLeg -3.265189 -0.000000 0.000000
RightFoot -19.808021 -21.834793 15.935742
RightToeBase 25.633172 -0.000000 -0.000000
32
root 18.881126 35.511544 -20.914593 -172.711192 -3.060553 -178.798591
Spine -18.350284 -0.098464 0.945650
Head 9.859101 -1.086235 -1.257178
LeftShoulder -11.566956 -36.947220 20.127275
LeftArm 5.603641 9.198457 -7.678503
LeftForeArm 11.184165 -0.000000 -0.476886
LeftHand -9.392443 -0.000000 -4.646469
LeftHandThumb1 -26.253704 0.000000 33.147579
RightShoulder -9.768135 0.052351 -12.321212
RightArm 6.490796 37.806835 10.836118
RightForeArm -36.160910 0.000000 5.762276
RightHand -5.300727 -0.000000 10.900021
RightHandThumb1 -24.326973 -0.000000 -32.862282
LeftUpLeg 0.208134 8.861911 2.316068
LeftLeg -6.520565 -0.000000 0.000000
LeftFoot -19.355109 26.986737 -11.790131
LeftToeBase 27.703927 -0.000000 -0.000000
RightUpLeg -1.187447 -12.871412 -0.060216
RightLeg -3.252803 -0.000000 0.000000
RightFoot -19.822128 -21.834346 15.926147
RightToeBase 25.660275 -0.000000 -0.000000
33
root 18.882742 35.511299 -20.915575 -172.709899 -3.070101 -178.802145
Spine -18.325213 -0.084510 0.930323
Head 9.800211 -1.107514 -1.258999
LeftShoulder -11.602460 -36.674544 20.056068
LeftArm 5.457118 9.447547 -7.825018
LeftForeArm 11.038178 -0.000000 -0.117863
LeftHand -9.478773 0.000000 -4.170565
LeftHandThumb1 -26.253704 0.000000 33.147579
RightShoulder -9.744310 0.010524 -12.281236
RightArm 6.045704 37.227936 10.835489
RightForeArm -35.831760 -0.000000 6.310030
RightHand -5.402496 -0.000000 10.521256
RightHandThumb1 -24.326973 -0.000000 -32.862282
LeftUpLeg 0.203367 8.855010 2.315803
LeftLeg -6.514060 -0.000000 0.000000
LeftFoot -19.368848 26.984380 -11.790282
LeftToeBase 27.768653 -0.000000 -0.000000
RightUpLeg -1.184833 -12.864357 -0.060528
RightLeg -3.254987 -0.000000 0.000000
RightFoot -19.832750 -21.852713 15.936998
RightToeBase 25.639260 -0.000000 -0.000000
34
root 18.884378 35.510853 -20.915638 -172.708407 -3.078252 -178.800020
Spine -18.284916 -0.068156 0.923713
Head 9.702973 -1.134611 -1.273687
LeftShoulder -11.634578 -36.349738 19.957801
LeftArm 5.266825 9.722724 -7.995015
LeftForeArm 10.836072 0.000000 0.292017
LeftHand -9.463901 -0.000000 -3.588204
LeftHandThumb1 -26.253704 0.000000 33.147579
RightShoulder -9.714547 0.019001 -12.205921
RightArm 5.558569 36.949427 10.866636
RightForeArm -35.851692 0.000000 7.003244
RightHand -5.703374 -0.000000 10.071692
RightHandThumb1 -24.326973 -0.000000 -32.862282
LeftUpLeg 0.196880 8.853596 2.320361
LeftLeg -6.507533 -0.000000 0.000000
LeftFoot -19.362740 26.984426 -11.774580
LeftToeBase 27.760659 -0.000000 -0.000000
RightUpLeg -1.186815 -12.856961 -0.056169
RightLeg -3.251711 -0.000000 0.000000
RightFoot -19.839564 -21.860661 15.929350
RightToeBase 25.652025 -0.000000 -0.000000
35
root 18.886155 35.510319 -20.914501 -172.712801 -3.077474 -178.794581
Spine -18.233038 -0.021146 0.920022
Head 9.609427 -1.174631 -1.296504
LeftShoulder -11.611106 -36.017783 19.799783
LeftArm 5.017674 10.161401 -8.166518
LeftForeArm 10.543971 0.000000 0.742720
LeftHand -9.349184 -0.000000 -3.018597
LeftHandThumb1 -26.253704 0.000000 33.147579
RightShoulder -9.745361 -0.117930 -12.097862
RightArm 5.159551 36.965253 11.011469
RightForeArm -35.968435 -0.000000 7.753597
RightHand -6.043835 0.000000 9.539387
RightHandThumb1 -24.326973 -0.000000 -32.862282
LeftUpLeg 0.193090 8.856471 2.328346
LeftLeg -6.497697 -0.000000 0.000000
LeftFoot -19.365515 26.989099 -11.749993
LeftToeBase 27.744212 -0.000000 -0.000000
RightUpLeg -1.196584 -12.846605 -0.049103
RightLeg -3.228504 -0.000000 0.000000
RightFoot -19.850929 -21.860890 15.922577
RightToeBase 25.646728 -0.000000 -0.000000
36
root 18.887867 35.509834 -20.913190 -172.727067 -3.085462 -178.789130
Spine -18.156642 -0.018736 0.928139
Head 9.496048 -1.179968 -1.323099
LeftShoulder -11.662034 -35.615342 19.638765
LeftArm 4.818201 10.589953 -8.353716
LeftForeArm 10.174691 0.000000 1.142662
LeftHand -9.186279 -0.000000 -2.343699
LeftHandThumb1 -26.253704 0.000000 33.147579
RightShoulder -9.751605 -0.210007 -11.975616
RightArm 4.752605 36.822551 11.134828
RightForeArm -35.837445 -0.000000 8.471915
RightHand -6.335492 -0.000000 9.033571
RightHandThumb1 -24.326973 -0.000000 -32.862282
LeftUpLeg 0.196359 8.857859 2.338316
LeftLeg -6.484158 -0.000000 0.000000
LeftFoot -19.377473 26.988579 -11.729631
LeftToeBase 27.777440 -0.000000 -0.000000
RightUpLeg -1.193407 -12.851176 -0.042888
RightLeg -3.210085 -0.000000 0.000000
RightFoot -19.862889 -21.869774 15.916026
RightToeBase 25.632926 -0.000000 -0.000000
